<svg width="18" height="18" viewBox="0 0 18 18" fill="none" xmlns="http://www.w3.org/2000/svg">
<path fill-rule="evenodd" clip-rule="evenodd" d="M13.0325 0H4.96725C2.2283 0 0 2.22839 0 4.96741V13.0326C0 15.7717 2.2283 18 4.96725 18H13.0325C15.7717 18 18 15.7716 18 13.0326V4.96741C18.0001 2.22839 15.7717 0 13.0325 0ZM4.642 17C2.63379 17.0001 1 15.3662 1 13.3579L4.642 17ZM1 4.64209C1 2.63391 2.63379 1 4.642 1L1 4.64209ZM13.3578 1C15.3661 1 17 2.63391 17 4.64209L13.3578 1ZM13.4349 2.83418C13.5833 2.68509 13.7898 2.6 14 2.6C14.2109 2.6 14.4175 2.68509 14.5658 2.83418C14.7149 2.98255 14.8 3.18909 14.8 3.4C14.8 3.61018 14.7149 3.81673 14.5658 3.96582C14.4167 4.11418 14.2109 4.2 14 4.2C13.7898 4.2 13.5833 4.11418 13.4349 3.96582C13.2858 3.81673 13.2 3.61025 13.2 3.4C13.2 3.18909 13.2857 2.98255 13.4349 2.83418Z" fill="white"/>
</svg>
